<?xml version="1.0" encoding="utf-8"?>
<!-- Generator: Adobe Illustrator 19.0.0, SVG Export Plug-In . SVG Version: 6.00 Build 0)  -->
<svg version="1.1" id="Layer_1" xmlns="http://www.w3.org/2000/svg" xmlns:xlink="http://www.w3.org/1999/xlink" x="0px" y="0px"
	 viewBox="0 0 400 400" style="enable-background:new 0 0 400 400;" xml:space="preserve">
<style type="text/css">
	.st0{fill:none;stroke:#000000;stroke-width:2;stroke-linecap:round;stroke-miterlimit:10;}
</style>
<g>
	<line id="XMLID_1_" class="st0" x1="0" y1="0" x2="250" y2="250"/>
	<polyline id="XMLID_5_" class="st0" points="250.1,200.1 200,150 150,150 	"/>
	<polyline id="XMLID_8_" class="st0" points="150,250 100,200 100,100 	"/>
	<line id="XMLID_11_" class="st0" x1="100" y1="150" x2="150" y2="200"/>
	<polyline id="XMLID_13_" class="st0" points="250,150 225.1,125 125,125 	"/>
	<polygon id="XMLID_14_" class="st0" points="251.5,255 250,253.5 250,251.5 251.5,250 253.5,250 255,251.5 255,253.5 253.5,255 	
		"/>
	<polygon id="XMLID_17_" class="st0" points="151.5,205 150,203.5 150,201.5 151.5,200 153.5,200 155,201.5 155,203.5 153.5,205 	
		"/>
	<polygon id="XMLID_18_" class="st0" points="151.5,255 150,253.5 150,251.5 151.5,250 153.5,250 155,251.5 155,253.5 153.5,255 	
		"/>
	<polygon id="XMLID_15_" class="st0" points="251.5,205 250,203.5 250,201.5 251.5,200 253.5,200 255,201.5 255,203.5 253.5,205 	
		"/>
	<polygon id="XMLID_16_" class="st0" points="251.5,155 250,153.5 250,151.5 251.5,150 253.5,150 255,151.5 255,153.5 253.5,155 	
		"/>
</g>
<g>
	<polygon id="XMLID_3_" class="st0" points="101.5,252.5 100,251 100,249 101.5,247.5 103.5,247.5 105,249 105,251 103.5,252.5 	"/>
	<polygon id="XMLID_4_" class="st0" points="99,355 97.5,353.5 97.5,351.5 99,350 101,350 102.5,351.5 102.5,353.5 101,355 	"/>
	<polygon id="XMLID_6_" class="st0" points="251.5,302.5 250,301 250,299 251.5,297.5 253.5,297.5 255,299 255,301 253.5,302.5 	"/>
	<polygon id="XMLID_7_" class="st0" points="201.5,250 200,248.5 200,246.5 201.5,245 203.5,245 205,246.5 205,248.5 203.5,250 	"/>
	<line class="st0" x1="0" y1="200" x2="100" y2="300"/>
	<line class="st0" x1="50" y1="250" x2="100" y2="250"/>
	<line class="st0" x1="100" y1="300" x2="100" y2="350"/>
	<line class="st0" x1="100" y1="300" x2="250" y2="300"/>
	<line class="st0" x1="150" y1="300" x2="200" y2="250"/>
</g>
<g>
	<polygon id="XMLID_2_" class="st0" points="299,205 297.5,203.5 297.5,201.5 299,200 301,200 302.5,201.5 302.5,203.5 301,205 	"/>
	<polygon id="XMLID_9_" class="st0" points="351.5,155 350,153.5 350,151.5 351.5,150 353.5,150 355,151.5 355,153.5 353.5,155 	"/>
	<polygon id="XMLID_12_" class="st0" points="301.5,50 300,48.5 300,46.5 301.5,45 303.5,45 305,46.5 305,48.5 303.5,50 	"/>
	<polygon id="XMLID_10_" class="st0" points="196.5,105 195,103.5 195,101.5 196.5,100 198.5,100 200,101.5 200,103.5 198.5,105 	
		"/>
	<line class="st0" x1="200" y1="0" x2="250" y2="50"/>
	<line class="st0" x1="250" y1="50" x2="250" y2="100"/>
	<line class="st0" x1="250" y1="100" x2="300" y2="150"/>
	<line class="st0" x1="300" y1="150" x2="300" y2="200"/>
	<line class="st0" x1="250" y1="50" x2="200" y2="100"/>
	<line class="st0" x1="250" y1="100" x2="300" y2="100"/>
	<line class="st0" x1="300" y1="100" x2="350" y2="150"/>
	<line id="A" class="st0" x1="250" y1="100" x2="300" y2="50"/>
</g>
<g>
	<polygon id="XMLID_19_" class="st0" points="123,398.5 121.5,397 121.5,395 123,393.5 125,393.5 126.5,395 126.5,397 125,398.5 	
		"/>
	<polygon id="XMLID_20_" class="st0" points="275,398.5 273.5,397 273.5,395 275,393.5 277,393.5 278.5,395 278.5,397 277,398.5 	
		"/>
	<polygon id="XMLID_21_" class="st0" points="395,278.5 393.5,277 393.5,275 395,273.5 397,273.5 398.5,275 398.5,277 397,278.5 	
		"/>
	<polygon id="XMLID_22_" class="st0" points="395,126.5 393.5,125 393.5,123 395,121.5 397,121.5 398.5,123 398.5,125 397,126.5 	
		"/>
</g>
</svg>
