<?xml version="1.0" encoding="utf-8"?>
<!-- Generator: Adobe Illustrator 19.0.0, SVG Export Plug-In . SVG Version: 6.00 Build 0)  -->
<svg version="1.1" id="Layer_1" xmlns="http://www.w3.org/2000/svg" xmlns:xlink="http://www.w3.org/1999/xlink" x="0px" y="0px"
	 viewBox="0 0 600 600" style="enable-background:new 0 0 600 600;" xml:space="preserve">
<style type="text/css">
	.st0{fill:none;stroke:#000000;stroke-width:4;stroke-linecap:round;stroke-miterlimit:1;}
</style>
<path id="XMLID_78_" class="st0" d="M0,50h200l50,50h100l50-50h50l50,50h45 M200,50h95 M500,100l45-45 M300,100l45-45 M500,100
	l45,45 M298,55h4l3-3v-4l-3-3h-4l-3,3v4L298,55z M348,55h4l3-3v-4l-3-3h-4l-3,3v4L348,55z M548,55h4l3-3v-4l-3-3h-4l-3,3v4L548,55z
	 M548,105h4l3-3v-4l-3-3h-4l-3,3v4L548,105z M548,155h4l3-3v-4l-3-3h-4l-3,3v4L548,155z"/>
<path id="XMLID_79_" class="st0" d="M0,150h50l50-50h50l100,100h150l50-50h50l45,45 M200,150h150l50-50h45 M350,150h45 M50,150
	l50,50h50l50,50h45 M400,200h95 M448,105h4l3-3v-4l-3-3h-4l-3,3v4L448,105z M398,155h4l3-3v-4l-3-3h-4l-3,3v4L398,155z M498,205h4
	l3-3v-4l-3-3h-4l-3,3v4L498,205z M548,205h4l3-3v-4l-3-3h-4l-3,3v4L548,205z M248,255h4l3-3v-4l-3-3h-4l-3,3v4L248,255z"/>
<path id="XMLID_80_" class="st0" d="M0,250h100l50,50h100l50-50h100l50,50h95 M545,250h-45l-50,50 M400,250h45 M300,250l50,50h45
	 M200,300l45,45 M250,300h45 M548,255h4l3-3v-4l-3-3h-4l-3,3v4L548,255z M448,255h4l3-3v-4l-3-3h-4l-3,3v4L448,255z M298,305h4l3-3
	v-4l-3-3h-4l-3,3v4L298,305z M398,305h4l3-3v-4l-3-3h-4l-3,3v4L398,305z M548,305h4l3-3v-4l-3-3h-4l-3,3v4L548,305z M248,355h4l3-3
	v-4l-3-3h-4l-3,3v4L248,355z"/>
<path id="XMLID_81_" class="st0" d="M0,350h200l50,50h100l50-50h50l50,50h45 M450,350h95 M345,350h-45l-50,50 M50,350l50,50h50
	l50,50h45 M548,355h4l3-3v-4l-3-3h-4l-3,3v4L548,355z M348,355h4l3-3v-4l-3-3h-4l-3,3v4L348,355z M548,405h4l3-3v-4l-3-3h-4l-3,3v4
	L548,405z M248,455h4l3-3v-4l-3-3h-4l-3,3v4L248,455z"/>
<path id="XMLID_82_" class="st0" d="M545,450h-45l-50,50h-50l-50-50h-50l-50,50h-50l-50-50H0 M445,400h-45l-50,50 M450,500h44
	 M350,450h95 M448,405h4l3-3v-4l-3-3h-4l-3,3v4L448,405z M548,455h4l3-3v-4l-3-3h-4l-3,3v4L548,455z M448,455h4l3-3v-4l-3-3h-4l-3,3
	v4L448,455z M498,505h4l3-3v-4l-3-3h-4l-3,3v4L498,505z"/>
<path id="XMLID_83_" class="st0" d="M0,550h250l50-50h50l50,50h145 M250,550h95 M500,550l45-45 M548,505h4l3-3v-4l-3-3h-4l-3,3v4
	L548,505z M548,555h4l3-3v-4l-3-3h-4l-3,3v4L548,555z M348,555h4l3-3v-4l-3-3h-4l-3,3v4L348,555z"/>
</svg>
