<?xml version="1.0" encoding="utf-8"?>
<!-- Generator: Adobe Illustrator 19.0.0, SVG Export Plug-In . SVG Version: 6.00 Build 0)  -->
<svg version="1.1" id="Layer_1" xmlns="http://www.w3.org/2000/svg" xmlns:xlink="http://www.w3.org/1999/xlink" x="0px" y="0px"
	 viewBox="0 0 400 400" style="enable-background:new 0 0 400 400;" xml:space="preserve">
<style type="text/css">
	.st0{display:none;}
	.st1{fill:none;stroke:#000000;stroke-width:2;stroke-linecap:round;stroke-miterlimit:1;}
</style>
<g id="Guides" class="st0">
</g>
<polyline id="XMLID_15_" class="st1" points="0,100 100,100 150,50 300,50 347,97 "/>
<polyline id="XMLID_17_" class="st1" points="0,200 50,200 100,250 150,250 250,150 346,150 "/>
<polyline id="XMLID_19_" class="st1" points="0,300 100,300 150,350 296,350 "/>
<polyline id="XMLID_16_" class="st1" points="50,200 100,150 150,150 200,100 296,100 "/>
<line id="XMLID_20_" class="st1" x1="50" y1="200" x2="146" y2="200"/>
<polyline id="XMLID_21_" class="st1" points="247,247 200,200 296,200 "/>
<line id="XMLID_22_" class="st1" x1="200" y1="350" x2="347" y2="203"/>
<polyline id="XMLID_23_" class="st1" points="100,300 150,300 197,253 "/>
<line id="XMLID_24_" class="st1" x1="100" y1="100" x2="146" y2="100"/>
<line id="XMLID_25_" class="st1" x1="150" y1="150" x2="196" y2="150"/>
<line id="XMLID_26_" class="st1" x1="150" y1="300" x2="196" y2="300"/>
<line id="XMLID_39_" class="st1" x1="250" y1="300" x2="346" y2="300"/>
<line id="XMLID_40_" class="st1" x1="300" y1="250" x2="346" y2="250"/>
<polygon id="XMLID_18_" class="st1" points="348.3,104 346,101.7 346,98.3 348.3,96 351.7,96 354,98.3 354,101.7 351.7,104 "/>
<polygon id="XMLID_27_" class="st1" points="298.3,104 296,101.7 296,98.3 298.3,96 301.7,96 304,98.3 304,101.7 301.7,104 "/>
<polygon id="XMLID_28_" class="st1" points="148.3,104 146,101.7 146,98.3 148.3,96 151.7,96 154,98.3 154,101.7 151.7,104 "/>
<polygon id="XMLID_29_" class="st1" points="198.3,154 196,151.7 196,148.3 198.3,146 201.7,146 204,148.3 204,151.7 201.7,154 "/>
<polygon id="XMLID_30_" class="st1" points="348.3,154 346,151.7 346,148.3 348.3,146 351.7,146 354,148.3 354,151.7 351.7,154 "/>
<polygon id="XMLID_31_" class="st1" points="298.3,204 296,201.7 296,198.3 298.3,196 301.7,196 304,198.3 304,201.7 301.7,204 "/>
<polygon id="XMLID_32_" class="st1" points="148.3,204 146,201.7 146,198.3 148.3,196 151.7,196 154,198.3 154,201.7 151.7,204 "/>
<polygon id="XMLID_33_" class="st1" points="198.3,254 196,251.7 196,248.3 198.3,246 201.7,246 204,248.3 204,251.7 201.7,254 "/>
<polygon id="XMLID_34_" class="st1" points="248.3,254 246,251.7 246,248.3 248.3,246 251.7,246 254,248.3 254,251.7 251.7,254 "/>
<polygon id="XMLID_38_" class="st1" points="348.3,254 346,251.7 346,248.3 348.3,246 351.7,246 354,248.3 354,251.7 351.7,254 "/>
<polygon id="XMLID_35_" class="st1" points="348.3,204 346,201.7 346,198.3 348.3,196 351.7,196 354,198.3 354,201.7 351.7,204 "/>
<polygon id="XMLID_36_" class="st1" points="198.3,304 196,301.7 196,298.3 198.3,296 201.7,296 204,298.3 204,301.7 201.7,304 "/>
<polygon id="XMLID_41_" class="st1" points="348.3,304 346,301.7 346,298.3 348.3,296 351.7,296 354,298.3 354,301.7 351.7,304 "/>
<polygon id="XMLID_37_" class="st1" points="298.3,354 296,351.7 296,348.3 298.3,346 301.7,346 304,348.3 304,351.7 301.7,354 "/>
</svg>
